<?xml version="1.0" encoding="UTF-8"?>
<svg id="Layer_1" data-name="Layer 1" xmlns="http://www.w3.org/2000/svg" viewBox="0 0 347.33 57.24">
  <defs>
    <style>
      .cls-1 {
        fill: #231f20;
      }
    </style>
  </defs>
  <path class="cls-1" d="M23.83,57.24c-.79,0-1.51-.07-2.16-.29-5.47-1.51-6.26-6.77-5.4-9.22.94-2.88,2.66-4.03,3.38-4.46.36-.22,1.15-.07,1.44.36.29.36.29.86-.43,1.37-1.51,1.15-2.09,2.16-2.45,3.38-.36,1.22-.36,5.04,2.95,6.12.79.29,1.58.43,2.38.43,4.68,0,8.57-5.04,10.3-11.38.65-2.3.94-4.54.94-6.55,0-4.39-1.44-7.56-3.82-8.14-1.22-.22-2.23,1.15-4.32,1.87-1.08.36-2.38.79-3.46.79-1.01,0-1.8-.36-2.02-1.3-.43-1.94,2.3-3.1,3.96-3.6,1.66-.5,3.96-.58,4.75-.79.79-.14.79-.29,1.37-.86.65-.65,4.25-5.11,4.9-9.79.22-1.22.29-2.45.29-3.67,0-3.53-1.01-6.77-4.46-7.63-3.24-.86-8.78,1.22-14.47,7.78,1.22,2.52,1.8,6.05,1.8,10.22,0,2.74-.29,5.76-.72,9-1.94,13.61-9.58,27.15-14.55,26.07-2.52-.58-4.03-3.53-4.03-8.35,0-3.38.72-7.7,2.38-12.67,2.38-7.13,5.83-14.04,10.08-20.31-.65-3.1-1.8-5.11-3.6-5.11-4.46,0-6.26,7.56-6.26,9.07,0,.86-.58,1.73-1.15,1.87-.43.07-.79-.22-.79-1.22,0-2.3,2.52-12.96,10.22-12.96,2.52,0,4.39,1.01,5.69,2.81C21.96,3.82,27.72,0,33.63,0c1.44,0,2.88.22,4.32.72,4.46,1.51,5.83,4.68,5.83,7.99,0,2.88-1.08,5.9-2.16,8.06-2.45,4.54-6.26,8.21-7.27,8.78-1.08.65-.58.94.14,1.01.65.07,8.5,2.02,8.5,10.51,0,1.22-.14,2.52-.5,4.03-2.45,10.37-12.38,16.13-18.65,16.13ZM4.61,36.94c-1.44,4.97-2.16,9.43-2.16,12.67,0,2.95.58,4.82,1.87,5.11,4.03.86,7.27-12.67,8.28-22.47.29-2.81.5-5.76.5-8.57,0-1.94-.14-3.82-.29-5.54-3.6,5.83-6.26,12.24-8.21,18.79Z"/>
  <path class="cls-1" d="M64.37,54.87c-2.52,1.22-5.33,1.87-7.92,1.87-2.81,0-5.47-.72-7.56-2.09-4.03-2.59-4.61-6.34-4.25-8.93.79-5.69,4.61-9,8.21-11.02,1.87-1.01,4.68-1.8,7.2-1.8,2.3,0,4.39.65,5.47,2.38.43.72.72,1.51.72,2.38,0,3.24-3.24,6.98-8.57,9.58-2.88,1.44-5.33,2.16-6.7,2.45.43,2.52,1.8,3.82,3.24,4.39,1.15.5,2.16.72,3.31.72,1.8,0,3.74-.65,6.34-1.94,3.31-1.66,5.62-4.9,6.05-5.98.29-.5.86-.5,1.15-.14s.36.94,0,1.58c-.79,1.51-2.3,4.39-6.7,6.55ZM51.34,43.42c-.43,1.66-.58,3.02-.58,4.25,1.66-.22,4.39-.86,6.55-2.66,2.16-1.87,3.67-5.04,3.67-7.34,0-1.08-.36-2.02-1.22-2.38-2.66-1.22-6.91,1.44-8.42,8.14Z"/>
  <path class="cls-1" d="M96.41,54.08c-1.22,1.22-3.24,2.81-6.19,2.38-2.52-.36-4.03-2.45-4.46-5.69-2.59,4.1-7.27,6.48-11.23,5.69-2.95-.65-6.12-3.67-6.12-8.5,0-1.87.43-4.03,1.58-6.34,3.02-6.26,8.57-8.78,12.46-8.78,1.22,0,2.3.22,3.1.72,1.44.86,2.23,1.94,2.74,2.81.5-1.08.94-1.87,1.22-2.3,1.01-1.08,1.87-1.15,2.66-1.08.86.07,2.02.36,1.87,1.08-.43,1.94-1.73,6.05-2.45,9.79-.43,2.23-.94,5.33-.94,7.49,0,1.44.22,2.45.79,2.74,1.44.72,3.74-1.3,5.18-3.02,1.22-1.51,1.94-2.81,2.45-3.82.5-1.01,2.09-.58,1.37,1.01-.79,1.58-2.52,4.39-4.03,5.83ZM84.02,35.07c-4.61-1.3-7.34,5.33-8.42,9.5-.58,2.16-1.08,4.46-1.08,6.34s.5,3.24,1.8,3.6c2.95.86,5.83-2.09,7.71-4.97.79-1.22,1.37-2.38,1.8-3.38.22-2.09.72-4.25,1.3-6.26-.07-1.8-.72-4.1-3.1-4.82Z"/>
  <path class="cls-1" d="M125.28,53.79c-1.44,1.37-3.96,3.38-6.55,2.74-3.02-.65-4.97-3.89-4.32-7.34.65-3.53,2.3-9.72,2.52-10.66.22-1.01.65-2.66-.5-3.02s-4.68,2.23-7.42,6.98c-2.66,4.68-5.11,11.52-5.4,12.53-.29.94-1.58,1.15-2.74,1.15-1.22,0-2.81.22-2.74-1.15.14-1.3.36-6.62,1.08-11.52.72-4.75,1.8-8.86,2.52-9.58.72-.72,1.73-.5,2.66-.5.94.07,2.3.5,2.02,1.58-.22,1.01-2.3,10.08-2.52,11.09-.14.58.07.94.29.94.22.07.58-.14.79-.58.58-.94,2.02-4.39,4.32-7.56,2.16-3.1,5.26-6.48,8.57-5.69,3.1.86,3.96,3.96,3.96,5.76,0,2.3-1.51,9.07-1.87,11.38-.14.94-.72,3.74.22,4.03,1.22.29,2.95-.94,4.46-2.66,1.44-1.66,2.45-3.17,3.1-4.54.22-.65.94-.79,1.3-.5.29.22.43.65.14,1.44-.65,1.73-2.52,4.32-3.89,5.69Z"/>
  <path class="cls-1" d="M198.29,24.63c-1.37,1.8-7.06,7.42-13.18,10.23-.5,10.08-3.24,22.39-13.39,22.03-6.77-.29-9.29-5.11-9.29-11.02,0-3.02.65-6.34,1.8-9.5-2.45-.58-4.75-1.37-6.62-2.45-4.61-2.88-7.42-8.14-7.42-13.54,0-1.8.29-3.67,1.01-5.4,2.3-5.83,9.07-10.15,14.76-10.15,1.22,0,2.38.22,3.46.65,5.11,2.02,6.55,7.13,6.55,10.95,0,.79-.07,1.51-.14,2.16-.5,3.17-1.8,10.58-2.88,16.27,3.38-.07,6.7-.58,9.86-1.8v-2.16c.29-10.87,2.09-18.36,5.33-22.03,2.09-2.38,4.75-3.53,6.99-3.53,1.37,0,2.59.5,3.38,1.37.65.79.94,1.66.94,2.45,0,1.58-1.15,2.95-2.23,3.31-2.23.72-3.67-.79-5.4-.5-1.58.22-3.17,1.08-4.25,3.02-.72,1.22-2.23,5.83-2.3,16.27,0,.22-.07.5-.07.72,5.69-2.74,9.87-6.55,11.16-8.21,1.01-1.22,2.23-1.37,2.52-.79.14.36,0,.94-.58,1.66ZM167.33,7.85c-4.9,0-8.06,5.98-9,8.5-.58,1.51-1.22,4.32-1.22,7.27s.72,6.26,3.02,8.14c1.3,1.01,3.02,1.8,5.04,2.3,1.37-2.95,7.34-14.04,7.34-20.81,0-2.38-.72-4.18-2.66-4.9-.86-.36-1.73-.5-2.52-.5ZM172.51,37.16c-.07.36-.14.65-.22,1.01-.72,3.6-2.02,8.93-2.02,12.46,0,1.94.43,3.38,1.58,3.53,3.31.43,6.05-1.73,8.06-5.69,1.66-3.1,2.38-6.7,2.74-12.67-3.24,1.01-6.77,1.37-10.15,1.37Z"/>
  <path class="cls-1" d="M240.62,57.24c-.79,0-1.51-.07-2.16-.29-5.47-1.51-6.26-6.77-5.4-9.22.94-2.88,2.66-4.03,3.38-4.46.36-.22,1.15-.07,1.44.36.29.36.29.86-.43,1.37-1.51,1.15-2.09,2.16-2.45,3.38s-.36,5.04,2.95,6.12c.79.29,1.58.43,2.38.43,4.68,0,8.57-5.04,10.3-11.38.65-2.3.94-4.54.94-6.55,0-4.39-1.44-7.56-3.82-8.14-1.22-.22-2.23,1.15-4.32,1.87-1.08.36-2.38.79-3.46.79-1.01,0-1.8-.36-2.02-1.3-.43-1.94,2.3-3.1,3.96-3.6,1.66-.5,3.96-.58,4.75-.79.79-.14.79-.29,1.37-.86.65-.65,4.25-5.11,4.9-9.79.22-1.22.29-2.45.29-3.67,0-3.53-1.01-6.77-4.46-7.63-3.24-.86-8.78,1.22-14.47,7.78,1.22,2.52,1.8,6.05,1.8,10.22,0,2.74-.29,5.76-.72,9-1.94,13.61-9.58,27.15-14.55,26.07-2.52-.58-4.03-3.53-4.03-8.35,0-3.38.72-7.7,2.38-12.67,2.38-7.13,5.83-14.04,10.08-20.31-.65-3.1-1.8-5.11-3.6-5.11-4.46,0-6.26,7.56-6.26,9.07,0,.86-.58,1.73-1.15,1.87-.43.07-.79-.22-.79-1.22,0-2.3,2.52-12.96,10.22-12.96,2.52,0,4.39,1.01,5.69,2.81,5.4-6.26,11.16-10.08,17.07-10.08,1.44,0,2.88.22,4.32.72,4.46,1.51,5.83,4.68,5.83,7.99,0,2.88-1.08,5.9-2.16,8.06-2.45,4.54-6.26,8.21-7.27,8.78-1.08.65-.58.94.14,1.01.65.07,8.5,2.02,8.5,10.51,0,1.22-.14,2.52-.5,4.03-2.45,10.37-12.39,16.13-18.65,16.13ZM221.4,36.94c-1.44,4.97-2.16,9.43-2.16,12.67,0,2.95.58,4.82,1.87,5.11,4.03.86,7.27-12.67,8.28-22.47.29-2.81.5-5.76.5-8.57,0-1.94-.14-3.82-.29-5.54-3.6,5.83-6.26,12.24-8.21,18.79Z"/>
  <path class="cls-1" d="M287.21,43.42c-.94,1.22-2.45,2.38-3.89,2.81-.86.22-1.66.36-2.38.36-1.22,0-2.23-.29-3.1-.72-1.87-1.08-3.02-3.38-2.81-6.12.07-1.22-.22-.94-.72-.36-.43.58-2.16,2.74-3.89,6.19-1.73,3.53-3.31,8.93-3.53,9.65-.29.72-1.01.94-2.66.94-1.58.07-2.88-.14-2.81-1.01s.5-6.34,1.22-10.58c.72-4.75,2.23-10.15,2.52-10.58.36-.43,1.3-.72,2.66-.65,1.3.07,2.23.72,2.09,1.51-.22.79-.58,3.6-.94,5.33-.36,1.8-.5,3.82-.58,4.39,0,.36.14.43.29.29.14-.14.29-.36.43-.65.43-.79,2.3-4.03,3.82-6.34,1.58-2.38,2.81-3.74,3.24-4.1.58-.36,3.46-1.37,4.54-.58,1.37,1.01.29,3.38-.29,4.9s-2.09,4.61-1.08,5.9c.58.79,2.02,1.01,3.6.65,1.3-.36,2.66-1.37,3.46-2.38.36-.43.94-.22,1.15.07.14.22,0,.58-.36,1.08Z"/>
  <path class="cls-1" d="M302.97,54.87c-2.52,1.22-5.33,1.87-7.92,1.87-2.81,0-5.47-.72-7.56-2.09-4.03-2.59-4.61-6.34-4.25-8.93.79-5.69,4.61-9,8.21-11.02,1.87-1.01,4.68-1.8,7.2-1.8,2.3,0,4.39.65,5.47,2.38.43.72.72,1.51.72,2.38,0,3.24-3.24,6.98-8.57,9.58-2.88,1.44-5.33,2.16-6.7,2.45.43,2.52,1.8,3.82,3.24,4.39,1.15.5,2.16.72,3.31.72,1.8,0,3.74-.65,6.34-1.94,3.31-1.66,5.62-4.9,6.05-5.98.29-.5.86-.5,1.15-.14s.36.94,0,1.58c-.79,1.51-2.3,4.39-6.7,6.55ZM289.94,43.42c-.43,1.66-.58,3.02-.58,4.25,1.66-.22,4.39-.86,6.55-2.66,2.16-1.87,3.67-5.04,3.67-7.34,0-1.08-.36-2.02-1.22-2.38-2.66-1.22-6.91,1.44-8.42,8.14Z"/>
  <path class="cls-1" d="M346.96,47.16c-.72,1.15-2.59,2.16-4.9,2.16-.86.07-1.8-.07-2.74-.43-1.94,3.82-5.04,7.56-9.22,7.34-6.7-.29-6.98-8.64-7.06-9.22,0-.22-.07-.43-.22-.43-.07,0-.29.07-.43.5-.43.79-3.96,9.5-9.65,9.36-4.25-.07-5.47-4.03-5.47-8.35,0-1.58.22-3.24.43-4.75.72-4.68,2.59-9.36,3.17-9.86.58-.43,1.44-.5,2.16-.43.65,0,2.52.29,2.23,1.58-.29,1.22-1.37,5.69-1.87,9.22-.29,2.09-.72,5.04-.72,7.27,0,1.58.22,2.81.94,3.02,1.73.5,5.04-2.59,7.49-8.14,2.38-5.62,3.24-10.51,3.31-11.23.14-.79.65-1.15,1.08-1.15s2.38-.14,2.81-.07c.5.07,1.51-.07,1.15,1.66-.29,1.73-1.01,5.76-1.08,9.15-.07,3.38-.14,9.58,2.45,9.79,2.3.22,5.11-2.02,7.13-5.9-1.44-.79-2.74-2.09-3.46-3.96-.43-1.15-.65-2.66-.65-4.18,0-3.67,1.3-7.42,4.46-7.49,2.88,0,3.74,2.81,3.74,5.76,0,1.51-.22,3.1-.5,4.39-.29,1.15-.79,2.95-1.66,4.75.94.29,2.02.36,3.1.22,1.58-.22,2.59-1.3,3.02-1.73.22-.22.79-.29,1.08-.07.29.14.36.58-.14,1.22ZM339.91,41.26c0-2.38-.86-4.1-2.45-4.18-1.51-.07-2.09,1.66-2.09,3.53,0,1.3.29,2.74.72,3.6.5,1.15,1.44,2.09,2.52,2.74.07-.14.07-.22.14-.36.79-1.87,1.15-3.74,1.15-5.33Z"/>
</svg>