<?xml version="1.0" encoding="UTF-8"?>
<svg xmlns="http://www.w3.org/2000/svg" viewBox="0 0 490.24 462.39">
  <defs>
    <style>
      .cls-1 {
        fill: #231f20;
      }

      .cls-2 {
        fill: #d1d3d4;
        opacity: .6;
        transform-box: fill-box; /* use SVG coordinate system */
        transform-origin: center; /* center of SVG space */
        animation: scale-center 3s infinite alternate ease-in-out;
}
@keyframes scale-center {
  0% {
    transform: scale(1);
  }
  100% {
    transform:  scale(1.07);
  }
      }
    </style>
  </defs>
  <g id="Layer_2" data-name="Layer 2" transform="translate(0 15)">
    <path class="cls-2" d="M127.92,304.61c5.84,10.58,16.44,10.82,36.89,21.34,11.48,5.91,17.23,8.86,21.49,14.16,6.78,8.42,6.26,15.25,13.45,18.76,3.63,1.77,5.99,1.12,17.41.4,18.62-1.17,17.78.22,25.32-.87,13.55-1.95,12.91-5.95,30.33-11.21,18.64-5.62,25.25-2.83,33.06-9.8,6-5.36,8.34-12.59,9.37-17.97,2.5,3.12,6.93,7.82,13.78,11.44,2.05,1.08,18.03,9.22,33.42,3.32,14.56-5.59,12.75-17.66,26.69-21.58,11.52-3.24,18.59,3.35,24.75-1.88,2.45-2.08,3.47-4.94,4.41-19.61,1.66-26.1-.96-26.78,1.65-35.94,3.57-12.55,9.96-16.41,7.71-23.96-1.61-5.43-6.51-8.84-10.47-10.89,4.67-.38,18.09-2.09,27-12.53,14.45-16.92,4.65-42.23,3.97-43.91-10.29-25.44-34.67-23.04-41.39-45.85-5.51-18.68,8.36-28.69-.05-39.86-10.32-13.71-41.57-12.36-47.49-12.1-7.34.32-10.63,1.36-17.53.12-13.44-2.42-18.05-9.48-26.5-12.25-7.82-2.57-20.39-1.95-40.78,13.52.73-5.1,1.58-16.44-5.19-26.37-5.26-7.71-12.52-10.77-23.41-15.2-21.27-8.65-25.47-3.6-41.84-11.08-16.68-7.63-20-16.39-28.95-14.54-5,1.03-9.12,6.4-17.17,17.08-12.17,16.15-10.85,19.6-18.81,26.5-7.92,6.87-10.09,4.2-22.18,13.08-7.23,5.31-13.7,10.06-18.18,18.52-5.05,9.52-5.13,19.13-4.46,25.35-30.26.5-41.56,8.87-46.23,16.58-8.02,13.24,2.64,25.98-8.14,43.23-6.85,10.96-14.44,11.08-18.98,23.59-.97,2.66-4.98,13.71-.31,24.08,4.15,9.22,11.01,8.68,21.92,18.57,14.81,13.41,9.89,21.37,22.3,31.03,14.67,11.42,33.93,9.92,38.29,9.58,21.43-1.66,36.32-14.26,38.05-11.75,1.02,1.48-4.78,5-10.29,15-2.74,4.97-7.93,14.71-5.69,26.04.27,1.39.91,4.49,2.78,7.88Z"/>
  </g>
  <g id="Layer_1" data-name="Layer 1" transform="translate(0 15)">
    <path class="cls-1" d="M6.38,417.11c-2.19-3.82-3.85-7.92-4.92-12.19-1.33-5.32-1.41-9.46-1.45-11.94-.08-4.73.45-9.77,1.54-14.56,1.23-5.43,3.34-10.98,6.09-16.07,2.4-4.44,4.71-7.47,6.94-10.4,3.35-4.39,6.14-7.33,8.61-9.92,4.34-4.56,8.9-8.77,13.54-12.51,1.11-.9,1.97-1.56,2.46-1.93,24.8-19.1,37.24-28.67,59.07-43.24,3.69-2.46,7.06-4.67,10.35-6.84,8.75-5.75,17.01-11.19,29.61-20.11,5.96-4.22,12-8.59,17.94-13l2-1.48c.24-.18.49-.36.73-.54,17.55-16.19,40.55-31.73,61.35-33.6l.7,4.94c-19.86,3.84-42.13,20.11-58.69,32.39-8.25,7.57-15.38,15.41-20.54,22.24-10.28,13.61-12.4,23.54-6.68,31.25,4.4,5.94,12.44,8.01,20.21,10.03,4.14,1.07,8.41,2.18,12.09,3.86,9.23,4.24,15.22,11.08,21.02,17.69,8.67,9.9,16.17,18.45,32.91,14.91,5.68-1.2,10.9-3.42,16.43-5.78,6.78-2.89,13.8-5.87,21.61-6.73,8.19-.9,13.87-1.05,18.02-1.16,7.53-.2,10.07-.27,15.51-4.05,5.65-3.92,9.02-10.37,10.86-17.81-8.77-8.42-24.39-25.39-30.35-50.7-.07-.32-7.35-31.72,2.36-35.38,5.17-1.95,11,4.68,17.03,12.25,9.55,12,13.3,24.25,14.47,28.96,2.78,11.23,4.9,28.43,1.99,43.19.44.41.85.79,1.24,1.15l1.78,1.65c11.07,10.26,19.07,17.68,28.2,16.16,7.24-1.2,12.73-5.41,18.54-9.86,3.08-2.36,6.27-4.81,9.79-6.83,5.73-3.29,12.04-3.53,17.61-3.74,9.18-.35,14.06-.91,16.07-9.2,3.12-12.87,4.37-26.92,5.58-40.51l.05-.61c.39-4.36,1.87-9.18,3.31-13.84,2.79-9.04,5.42-17.57.8-22.53-.57-.61-1.18-1.18-1.83-1.72-6.29.63-13.78.81-22.91.81h-.1c-11.51,0-23.42,0-39.05-3.07-9.51-1.87-20.99-4.99-29.96-8.15-15.92-5.61-16.78-8.58-16.33-10.93.14-.73.59-1.77,1.96-2.58,7.82-4.62,50.6-.83,80.17,8.82,2.35.77,4.9,1.44,7.6,2.15,6.74,1.77,14.2,3.73,20.03,7.77,8.32-.98,13.38-2.78,17.62-5.79,8.36-5.93,8.03-17.44,6.9-29.71-1.15-12.5-5.6-15.87-13.67-21.97-1.78-1.35-3.79-2.87-5.93-4.62-12.52-10.25-17.37-26.95-19.15-35.99-.67-3.39-.8-7.09-.94-11-.29-8.31-.58-16.24-5.88-20.63-11.02,7.94-20.82,15.82-28.5,22.31-10.14,8.57-18.83,17.46-27.57,26.58l-.54.55c-3.78,3.85-6.78,7.14-9.16,9.95,1.89,5.03,4.54,12.39,1.34,17.03-1.63,2.36-4.41,3.57-8.27,3.59h-.06c-4.34,0-6.06-1.9-6.74-3.5-.68-1.62-2.25-5.31,7.72-17.71-1.54,1.64-3.31,3.36-5.42,5.27-2.94,2.65-5.57,5.32-7.75,7.82-.05.9-.09,1.74-.13,2.51-.47,9.31-.76,12.72-2.13,14.38l-.91,1.11-1.42-.23c-4.57-.73-6.17-3.07-6.71-4.89-1.22-4.14,2.09-9.75,6.41-14.91.11-1.8.22-3.53.35-5.19-5.57,5.9-8.86,11.01-9.83,15.27.59,1.17,1.2,2.29,1.8,3.38,2.79,5.09,5.42,9.9,2.8,15-2.64,5.14-9.14,7.43-12.86,7.71-.04,0-.09,0-.13,0-.4,3.39-1.39,6.86-3.18,10.42-2.08,4.15-8.41,12.52-14.63,11.92-2.25-.22-5.27-1.66-6.85-7.3-2.21-7.87,6.16-19.48,13.4-28.76-9.87,6.63-22.06,8.17-27.36,8.83l-.75.1c-10.07,1.31-13.59,3.86-26.71,13.36-10.51,7.61-26.4,19.12-55.83,37.29-47.29,29.2-64.07,35.57-74.82,28.4-7.04-4.7-15.04-17.68-18.69-25.26-5.34-11.09-9.69-17.3-19.95-22.65-7.84-4.09-12.47-8.76-14.14-14.29-2.58-8.53,2.3-17.4,7.47-26.79,2.33-4.24,4.75-8.63,6.58-13.15,5.63-13.88,8.02-23.39,9.77-30.33,2.46-9.78,3.81-15.16,11.23-20.01,9.21-6.03,20.4-5.1,34.14-.71-.59-8.91,1.11-16.28,1.69-18.46,3.33-12.59,9.97-17.63,18.37-24.01,7.71-5.85,17.3-13.14,28.86-29,1.55-2.13,3.11-4.49,4.77-7,6.74-10.19,14.38-21.73,25.38-23.52,5.93-.97,12.22,1.1,18.67,6.14,2.59,2.03,4.48,3.85,6.15,5.45,3.89,3.75,6.24,6.01,13.8,7l.12.02c.07.01,7.41,1.36,23.84,4.97,12.65,2.77,24.94,15.24,30.65,29.24,3.48-2.18,7.27-3.67,11.49-4.23,9.11-1.21,17.55,2.2,27.32,6.14,6.82,2.76,10.17,4.89,13.41,6.96,1.68,1.07,3.26,2.08,5.32,3.18,9.27,4.95,18.91,3.68,29.11,2.34,8.5-1.12,17.3-2.28,25.91.44,1.1.35,2.12.76,3.05,1.22,9.73-6.89,20.32-13.74,31.2-19.73,21.61-11.88,46.33-24.11,65.74-24.65l2.41-.07.31,4.79-2.62.29c-.16.02-1.07.13-2,.3-1.34.24-2.7.57-3.22.7l-.14-.57c-17.49,2.34-38.98,13.1-58.06,23.59-10.17,5.59-20.08,11.96-29.27,18.4,6.06,5.9,6.4,15.41,6.68,23.43.13,3.71.26,7.21.85,10.22,1.65,8.38,6.1,23.83,17.41,33.09,2.06,1.69,3.95,3.11,5.77,4.5,8.29,6.27,14.27,10.79,15.63,25.5.96,10.42,2.41,26.16-8.99,34.25-4.28,3.04-9.28,4.92-15.71,6.06,5.6,7.04,2.55,16.96-.41,26.56-1.42,4.62-2.77,8.98-3.11,12.81l-.05.61c-1.17,13.13-2.5,28.02-5.7,41.24-2.99,12.35-12.42,12.71-20.74,13.02-5.23.2-10.64.4-15.3,3.08-3.24,1.86-6.29,4.2-9.24,6.46-6.04,4.63-12.29,9.42-20.77,10.83-11.54,1.9-20.75-6.62-32.41-17.43l-1-.93c-2.26,7.42-6.09,13.86-12.13,18.05-6.67,4.63-10.53,4.74-18.23,4.94-4.06.11-9.62.26-17.61,1.13-7.08.78-13.46,3.49-20.2,6.36-5.51,2.34-11.2,4.77-17.36,6.07-19.61,4.14-28.81-6.36-37.71-16.51-5.45-6.22-11.08-12.64-19.34-16.44-3.27-1.5-7.14-2.5-11.25-3.57-8.61-2.23-17.52-4.53-22.97-11.89-10.61-14.31,2.42-31.57,6.71-37.24.8-1.06,1.65-2.15,2.56-3.27-12.21,8.63-20.33,13.97-28.93,19.62-3.28,2.16-6.64,4.37-10.32,6.82-21.69,14.47-34.09,24.01-58.78,43.03-.48.37-1.31,1.01-2.38,1.87-4.47,3.6-8.86,7.66-13.06,12.06-2.38,2.5-5.08,5.33-8.25,9.5-2.12,2.78-4.31,5.65-6.52,9.75-2.54,4.69-4.48,9.81-5.61,14.8-1,4.41-1.49,9.03-1.42,13.36.04,2.26.11,6.05,1.3,10.81.96,3.82,2.44,7.49,4.41,10.92l-4.34,2.49ZM277.74,229.11c-.11,0-.2.02-.28.05-2,.76-3.05,13.45.75,29.56,5.2,22.07,17.84,37.17,26.61,45.96,1.87-13.36-.16-28.47-2.47-37.78-1.09-4.39-4.59-15.82-13.53-27.04-7.23-9.08-10.01-10.73-11.08-10.73ZM83.79,112.69c-4.71,0-8.88,1.04-12.52,3.42-5.78,3.79-6.76,7.67-9.12,17.05-1.78,7.09-4.22,16.79-9.99,30.99-1.95,4.8-4.43,9.31-6.84,13.68-4.85,8.81-9.04,16.42-7.07,22.93,1.26,4.17,5.08,7.87,11.67,11.3,11.44,5.96,16.44,13.07,22.15,24.91,4.18,8.67,11.66,19.74,16.96,23.27,7.26,4.84,20.48,1.74,69.42-28.49,29.27-18.08,45.07-29.52,55.52-37.09,13.21-9.57,17.67-12.79,29-14.27l.77-.1c5.79-.73,20.47-2.58,29.58-11.59-.57-1.22-1.18-2.46-1.83-3.72-6.39-12.5-7.93-21.1-4.57-25.56,2.15-2.86,5.95-3.79,11.27-2.76,3.75.73,5.76,3.05,6.76,5.88,1.58-4.4,4.02-8.34,6.44-10.05,1.5-1.06,2.77-1.08,3.57-.91,3.08.66,3.95,4.47,4.34,7.29.22,1.57.03,3.3-.49,5.17,1.03-1.05,2.12-2.12,3.27-3.21,1.08-6.98,2.92-11.68,6.53-13.15,2.68-1.09,5.67-.13,8.89,2.86l.09.08c.05-4.21.9-8.45,3.5-10.81,1.63-1.48,4.59-2.85,9.46-.96l2.56.99-1.8,3.59c-3.02,6.03-5.12,10.24-8.1,14.32,0,.03,0,.05.01.07,2.08-2.34,4.49-4.92,7.29-7.78l.5-.51c8.84-9.22,17.63-18.21,27.95-26.94,7.28-6.15,16.45-13.54,26.76-21.06-7.47-2.27-15.26-1.25-23.49-.17-10.53,1.39-21.42,2.82-32.11-2.88-2.23-1.19-3.97-2.3-5.65-3.37-3.19-2.03-6.2-3.95-12.6-6.54-9.49-3.83-16.99-6.86-24.79-5.82-3.82.51-7.26,1.95-10.46,4.11,1,3.46,1.57,6.95,1.63,10.37.1,6.62-1.84,9.72-4.77,14.42-2.87,4.59-7.2,11.53-12.37,26.43-1.34,3.86-2.77,7.75-4.16,11.51-2.24,6.06-4.55,12.33-6.49,18.58l-.77,2.52c-3.11,10.13-5.35,17.45-10.77,17.82-3.97.28-6.99-3.65-8.43-6.01-3.75-6.13-4.14-14.34,4.93-38.12,5.63-14.75,8.45-22.15,14.21-31.43,6.69-10.77,13.14-21.17,21.13-27.88-4.88-12.96-16.21-24.93-27.55-27.42-15.55-3.41-22.89-4.79-23.61-4.92-9.14-1.21-12.41-4.36-16.55-8.35-1.58-1.52-3.37-3.25-5.76-5.11-5.38-4.2-10.22-5.89-14.78-5.14-8.84,1.44-15.84,12.02-22.01,21.35-1.69,2.55-3.28,4.96-4.9,7.18-11.99,16.46-21.91,23.99-29.87,30.04-8.23,6.25-13.67,10.38-16.56,21.31-.57,2.16-2.37,9.93-1.37,18.94,7.36,2.65,15.4,6.1,24.21,9.87,21.59,9.25,36.24,20.78,43.56,34.29,1.62,3,3.01,6.17,4.12,9.42l.1.28.03.3c.43,4.68-.49,7.78-2.8,9.48-5,3.67-11.61-1.18-31.23-15.58-5.41-3.97-11.54-8.47-18.94-13.76l-3.24-2.31c-8.81-6.28-11.17-7.96-14.07-12.29-3.44-5.14-5.31-10.68-6.24-15.96-7.34-2.48-13.84-4-19.54-4ZM308.16,198.78c5.38,3.4,24.11,9.71,41.1,13.05,15.15,2.98,26.29,2.98,38.08,2.98h.08c5.75,0,10.7-.09,14.99-.28-3.75-1.5-7.89-2.58-11.96-3.65-2.77-.73-5.39-1.42-7.88-2.23-28.86-9.42-65.51-11.81-74.42-9.87ZM276.9,177.94c-6.19,7.87-15.42,19.98-13.75,25.9.37,1.31,1.19,3.54,2.52,3.67,2.43.22,7.24-4.32,9.69-9.19,1.76-3.49,2.65-6.9,2.83-10.32-.34-.8-.28-1.62.01-2.43-.1-2.5-.55-5.03-1.3-7.63ZM290.07,172.16c-.71,3.06-1.93,6.69-4.15,10.41-.51.86-1.03,1.63-1.48,2.29,2.44-.62,5.79-2.15,7.11-4.72,1.11-2.16.32-4.5-1.48-7.98ZM280.63,173.17c.66,1.84,1.23,3.72,1.67,5.64,2.81-5.22,3.41-10.1,3.78-13.11,0-.02,0-.04,0-.06-.07.1-.15.2-.22.3-1.28,1.74-2.39,3.25-3.2,4.44-.56.82-1.25,1.75-2.03,2.78ZM108.84,118.67c.94,3.78,2.48,7.61,4.89,11.2,2.38,3.57,4.39,4.99,12.81,11l3.24,2.32c7.42,5.31,13.56,9.82,18.99,13.8,13.51,9.92,23.28,17.08,25.31,15.58.54-.4,1.02-1.84.8-4.7-1-2.89-2.24-5.7-3.69-8.36-6.77-12.49-20.61-23.28-41.13-32.07-7.68-3.29-14.75-6.32-21.23-8.76ZM299.53,169.86h0ZM300.36,163.37c-.96,1.77-1.36,3.18-1.1,4.08.09.3.34.54.66.73.18-1.23.32-2.95.44-4.81ZM274.29,141.27c-1.41,0-2.7.29-3.37,1.18-.74.99-2.58,5.38,5.03,20.28.29.56.57,1.12.85,1.69,1.61-2.61,2.71-5.69,3.35-9.35,1.94-11.07-.54-13.01-2.91-13.48-.93-.18-1.97-.32-2.96-.32ZM272.38,70.31c-6.59,6.13-12.28,15.3-18.48,25.29-5.51,8.88-8.27,16.12-13.78,30.56-9.21,24.13-7.58,30.07-5.34,33.74,1.5,2.45,3.07,3.68,3.83,3.63,1.99-.13,4.6-8.66,6.33-14.3l.78-2.53c1.98-6.37,4.31-12.7,6.57-18.83,1.38-3.74,2.8-7.6,4.12-11.41,5.35-15.44,9.86-22.66,12.85-27.44,2.81-4.5,4.09-6.55,4.01-11.7-.04-2.3-.35-4.65-.9-7.01ZM284.24,159.66s-.01.05-.02.08c.01-.02.02-.03.03-.05,0-.01,0-.02-.01-.04ZM321.28,148.05c-6.27,8.29-5.46,10.59-5.45,10.62.04.09.54.45,2.13.45h.04c2.12,0,3.52-.49,4.17-1.42,1.34-1.95.28-6.16-.9-9.64ZM293.81,136.99c-1.68,1.65-4.71,6.79-5.47,12.62-.2,1.52-.22,2.96-.1,4.35,3.56-5.4,6.6-11.03,6.13-14.39-.18-1.28-.39-2.09-.56-2.59ZM306.83,143.27c-.21,1.57-.38,3.2-.52,4.83,1.36-1.34,2.67-2.57,3.86-3.64,3.38-3.05,5.82-5.58,7.81-8.07-.1-.75-.18-1.53-.24-2.33l-.36.28c-3.96,3.13-7.48,6.1-10.55,8.93ZM310.83,132.27c-.12,0-.23.02-.31.05-.77.31-1.41,1.31-1.96,2.76,1.01-.85,2.05-1.72,3.13-2.6-.35-.15-.64-.22-.87-.22ZM326,122.92c-.92.04-1.33.41-1.52.58-1.1,1-1.66,3.2-1.82,5.81,1.06-1.9,2.12-3.98,3.34-6.4Z"/>
  </g>
</svg>